<svg width="32" height="33" viewBox="0 0 32 33" fill="none" xmlns="http://www.w3.org/2000/svg">
<g filter="url(#filter0_b_235_987)">
<rect y="0.982422" width="32" height="32" rx="8" fill="#F2EEEB" fill-opacity="0.5"/>
<path d="M19.3998 14.8622L14.8098 10.2722C14.6224 10.086 14.369 9.98145 14.1048 9.98145C13.8406 9.98145 13.5872 10.086 13.3998 10.2722C13.3061 10.3652 13.2317 10.4758 13.1809 10.5977C13.1301 10.7195 13.104 10.8502 13.104 10.9822C13.104 11.1142 13.1301 11.245 13.1809 11.3668C13.2317 11.4887 13.3061 11.5993 13.3998 11.6922L17.9998 16.2722C18.0935 16.3652 18.1679 16.4758 18.2187 16.5977C18.2695 16.7195 18.2956 16.8502 18.2956 16.9822C18.2956 17.1143 18.2695 17.245 18.2187 17.3668C18.1679 17.4887 18.0935 17.5993 17.9998 17.6922L13.3998 22.2722C13.2115 22.4592 13.1052 22.7133 13.1042 22.9787C13.1033 23.2441 13.2078 23.4989 13.3948 23.6872C13.5818 23.8755 13.8359 23.9819 14.1013 23.9828C14.3666 23.9837 14.6215 23.8792 14.8098 23.6922L19.3998 19.1022C19.9616 18.5397 20.2772 17.7772 20.2772 16.9822C20.2772 16.1872 19.9616 15.4247 19.3998 14.8622Z" fill="#FAFAFA"/>
</g>
<defs>
<filter id="filter0_b_235_987" x="-24" y="-23.0176" width="80" height="80" filterUnits="userSpaceOnUse" color-interpolation-filters="sRGB">
<feFlood flood-opacity="0" result="BackgroundImageFix"/>
<feGaussianBlur in="BackgroundImageFix" stdDeviation="12"/>
<feComposite in2="SourceAlpha" operator="in" result="effect1_backgroundBlur_235_987"/>
<feBlend mode="normal" in="SourceGraphic" in2="effect1_backgroundBlur_235_987" result="shape"/>
</filter>
</defs>
</svg>
