<svg width="25" height="25" viewBox="0 0 25 25" fill="none" xmlns="http://www.w3.org/2000/svg">
<path d="M17.6666 10.5H19.6666C21.6666 10.5 22.6666 9.5 22.6666 7.5V5.5C22.6666 3.5 21.6666 2.5 19.6666 2.5H17.6666C15.6666 2.5 14.6666 3.5 14.6666 5.5V7.5C14.6666 9.5 15.6666 10.5 17.6666 10.5Z" stroke="#F2EEEB" stroke-width="1.5" stroke-miterlimit="10" stroke-linecap="round" stroke-linejoin="round"/>
<path d="M5.66663 22.5H7.66663C9.66663 22.5 10.6666 21.5 10.6666 19.5V17.5C10.6666 15.5 9.66663 14.5 7.66663 14.5H5.66663C3.66663 14.5 2.66663 15.5 2.66663 17.5V19.5C2.66663 21.5 3.66663 22.5 5.66663 22.5Z" stroke="#F2EEEB" stroke-width="1.5" stroke-miterlimit="10" stroke-linecap="round" stroke-linejoin="round"/>
<path d="M6.66663 10.5C8.87576 10.5 10.6666 8.70914 10.6666 6.5C10.6666 4.29086 8.87576 2.5 6.66663 2.5C4.45749 2.5 2.66663 4.29086 2.66663 6.5C2.66663 8.70914 4.45749 10.5 6.66663 10.5Z" stroke="#F2EEEB" stroke-width="1.5" stroke-miterlimit="10" stroke-linecap="round" stroke-linejoin="round"/>
<path d="M18.6666 22.5C20.8758 22.5 22.6666 20.7091 22.6666 18.5C22.6666 16.2909 20.8758 14.5 18.6666 14.5C16.4575 14.5 14.6666 16.2909 14.6666 18.5C14.6666 20.7091 16.4575 22.5 18.6666 22.5Z" stroke="#F2EEEB" stroke-width="1.5" stroke-miterlimit="10" stroke-linecap="round" stroke-linejoin="round"/>
</svg>
