<svg width="25" height="25" viewBox="0 0 25 25" fill="none" xmlns="http://www.w3.org/2000/svg">
<path d="M17.1032 3H19.0032C20.0093 3 20.6955 3.26443 21.1321 3.70105C21.5688 4.13768 21.8332 4.82387 21.8332 5.83V7.73C21.8332 8.73613 21.5688 9.42232 21.1321 9.85895C20.6955 10.2956 20.0093 10.56 19.0032 10.56H17.1032C16.0971 10.56 15.4109 10.2956 14.9742 9.85895C14.5376 9.42232 14.2732 8.73613 14.2732 7.73V5.83C14.2732 4.82387 14.5376 4.13768 14.9742 3.70105C15.4109 3.26443 16.0971 3 17.1032 3Z" fill="#C1B2A1" stroke="#C1B2A1"/>
<path d="M10.3933 17.2674V17.2697V19.1697C10.3933 20.1758 10.1288 20.862 9.6922 21.2986C9.25557 21.7353 8.56939 21.9997 7.56325 21.9997H5.66325C4.65712 21.9997 3.97122 21.7353 3.5347 21.2978C3.09799 20.8601 2.83325 20.1714 2.83325 19.1597V17.2597C2.83325 16.2536 3.09766 15.5677 3.53516 15.1311C3.97284 14.6944 4.66153 14.4297 5.67325 14.4297H7.57325C8.57956 14.4297 9.26509 14.6942 9.70016 15.1312C10.1352 15.5682 10.3979 16.2561 10.3933 17.2674Z" fill="#C1B2A1" stroke="#C1B2A1"/>
<path d="M10.4133 6.79C10.4133 8.88316 8.71641 10.58 6.62325 10.58C4.53009 10.58 2.83325 8.88316 2.83325 6.79C2.83325 4.69684 4.53009 3 6.62325 3C8.71641 3 10.4133 4.69684 10.4133 6.79Z" fill="#C1B2A1" stroke="#C1B2A1"/>
<path d="M21.8332 18.2099C21.8332 20.3031 20.1363 21.9999 18.0432 21.9999C15.95 21.9999 14.2532 20.3031 14.2532 18.2099C14.2532 16.1168 15.95 14.4199 18.0432 14.4199C20.1363 14.4199 21.8332 16.1168 21.8332 18.2099Z" fill="#C1B2A1" stroke="#C1B2A1"/>
</svg>
