<svg width="72" height="29" viewBox="0 0 72 29" fill="none" xmlns="http://www.w3.org/2000/svg">
<rect x="0.5" y="0.5" width="71" height="28" rx="11.5" stroke="url(#paint0_linear_71_1840)"/>
<path d="M20.1205 9.48C20.3725 9.48 20.5872 9.56867 20.7645 9.746C20.9418 9.92333 21.0305 10.138 21.0305 10.39C21.0305 10.6327 20.9418 10.8427 20.7645 11.02C20.5872 11.1973 20.3725 11.286 20.1205 11.286C19.8685 11.286 19.6538 11.1973 19.4765 11.02C19.2992 10.8427 19.2105 10.6327 19.2105 10.39C19.2105 10.138 19.2992 9.92333 19.4765 9.746C19.6538 9.56867 19.8685 9.48 20.1205 9.48ZM22.2485 9.48C22.5005 9.48 22.7152 9.56867 22.8925 9.746C23.0698 9.92333 23.1585 10.138 23.1585 10.39C23.1585 10.6327 23.0698 10.8427 22.8925 11.02C22.7152 11.1973 22.5005 11.286 22.2485 11.286C22.0058 11.286 21.7958 11.1973 21.6185 11.02C21.4412 10.8427 21.3525 10.6327 21.3525 10.39C21.3525 10.138 21.4412 9.92333 21.6185 9.746C21.7958 9.56867 22.0058 9.48 22.2485 9.48ZM23.1585 12.182V17.222C23.1585 17.334 23.1912 17.418 23.2565 17.474C23.3125 17.5393 23.3872 17.572 23.4805 17.572H23.8725V19H22.9905C22.5612 19 22.1738 18.8273 21.8285 18.482C21.2965 18.9207 20.7038 19.14 20.0505 19.14C19.3132 19.14 18.6785 18.9067 18.1465 18.44C17.4372 17.7773 17.0825 16.8907 17.0825 15.78C17.0825 14.7627 17.4092 13.918 18.0625 13.246C18.6598 12.6393 19.3925 12.336 20.2605 12.336C20.7458 12.336 21.2312 12.4387 21.7165 12.644L22.3185 12.182H23.1585ZM21.4505 13.988C21.1238 13.8667 20.8112 13.806 20.5125 13.806C20.0085 13.806 19.5932 13.9927 19.2665 14.366C18.9398 14.73 18.7765 15.206 18.7765 15.794C18.7765 16.382 18.9212 16.8533 19.2105 17.208C19.5092 17.5627 19.9058 17.74 20.4005 17.74C20.7365 17.74 21.0865 17.6653 21.4505 17.516V13.988ZM25.7224 15.024C26.0397 14.1093 26.6184 13.414 27.4584 12.938C28.0837 12.5833 28.7604 12.406 29.4884 12.406C30.2164 12.406 30.8837 12.602 31.4904 12.994C32.2464 13.4513 32.7877 14.128 33.1144 15.024L32.9464 15.416C32.573 15.584 32.181 15.8733 31.7704 16.284C31.3784 16.7133 31.1217 17.1427 31.0004 17.572H33.2544V19H30.1744C29.913 19 29.675 18.8787 29.4604 18.636H29.3904C29.1757 18.8787 28.9284 19 28.6484 19H23.7764V17.572H27.8364C27.7244 17.1893 27.4864 16.7833 27.1224 16.354C26.721 15.906 26.3057 15.5933 25.8764 15.416L25.7224 15.024ZM31.3224 14.912C31.0984 14.52 30.795 14.2307 30.4124 14.044C30.123 13.904 29.801 13.834 29.4464 13.834C29.073 13.834 28.7184 13.9133 28.3824 14.072C28.009 14.2587 27.7197 14.5387 27.5144 14.912C27.8317 15.052 28.1677 15.332 28.5224 15.752C28.9144 16.1907 29.2037 16.6667 29.3904 17.18H29.4464C29.6237 16.6573 29.927 16.158 30.3564 15.682C30.7017 15.2993 31.0237 15.0427 31.3224 14.912ZM37.3693 12.56V17.46C37.3693 17.824 37.2479 18.16 37.0053 18.468C36.6973 18.8227 36.3146 19 35.8573 19H33.1553V17.572H35.3113C35.4139 17.572 35.5026 17.5347 35.5773 17.46C35.6426 17.3947 35.6753 17.3153 35.6753 17.222V12.56H37.3693ZM36.2073 20.022C36.4593 20.022 36.6739 20.1107 36.8513 20.288C37.0286 20.4653 37.1173 20.68 37.1173 20.932C37.1173 21.184 37.0286 21.3987 36.8513 21.576C36.6739 21.7533 36.4593 21.842 36.2073 21.842C35.9553 21.842 35.7406 21.7533 35.5633 21.576C35.3953 21.3987 35.3113 21.184 35.3113 20.932C35.3113 20.68 35.3953 20.4653 35.5633 20.288C35.7406 20.1107 35.9553 20.022 36.2073 20.022ZM41.0119 8.976V17.222C41.0119 17.3153 41.0399 17.39 41.0959 17.446C41.1519 17.53 41.2406 17.572 41.3619 17.572H41.7259V19H40.8159C40.4332 19 40.0972 18.8647 39.8079 18.594C39.4719 18.286 39.3039 17.908 39.3039 17.46V8.976H41.0119ZM42.9898 9.48C43.2418 9.48 43.4565 9.56867 43.6338 9.746C43.8112 9.92333 43.8998 10.138 43.8998 10.39C43.8998 10.6327 43.8112 10.8427 43.6338 11.02C43.4565 11.1973 43.2418 11.286 42.9898 11.286C42.7378 11.286 42.5232 11.1973 42.3458 11.02C42.1685 10.8427 42.0798 10.6327 42.0798 10.39C42.0798 10.138 42.1685 9.92333 42.3458 9.746C42.5232 9.56867 42.7378 9.48 42.9898 9.48ZM45.1178 9.48C45.3698 9.48 45.5845 9.56867 45.7618 9.746C45.9392 9.92333 46.0278 10.138 46.0278 10.39C46.0278 10.6327 45.9392 10.8427 45.7618 11.02C45.5845 11.1973 45.3698 11.286 45.1178 11.286C44.8752 11.286 44.6652 11.1973 44.4878 11.02C44.3105 10.8427 44.2218 10.6327 44.2218 10.39C44.2218 10.138 44.3105 9.92333 44.4878 9.746C44.6652 9.56867 44.8752 9.48 45.1178 9.48ZM45.8458 12.56V17.362V17.572H46.5598V19H46.0698L45.5518 18.426H45.5238C45.2065 18.8087 44.8098 19 44.3338 19H41.6318V17.572H43.7458C43.8765 17.572 43.9698 17.5347 44.0258 17.46C44.1098 17.3853 44.1518 17.292 44.1518 17.18V12.56H45.8458ZM48.964 14.982C48.964 14.0953 49.272 13.4233 49.888 12.966C50.3733 12.5927 51.036 12.406 51.876 12.406C52.6973 12.406 53.3927 12.6487 53.962 13.134C54.6807 13.75 55.04 14.6227 55.04 15.752C55.04 16.816 54.7553 17.698 54.186 18.398C53.6353 19.0793 52.9213 19.42 52.044 19.42C51.2693 19.42 50.658 19.1307 50.21 18.552C49.9113 18.8507 49.5473 19 49.118 19H46.444V17.572H48.6C48.7027 17.572 48.7913 17.5347 48.866 17.46C48.9313 17.3947 48.964 17.3153 48.964 17.222V14.982ZM50.658 17.418C51.0033 17.7913 51.4 17.978 51.848 17.978C52.2867 17.978 52.646 17.7867 52.926 17.404C53.206 17.012 53.346 16.508 53.346 15.892C53.346 15.22 53.192 14.6927 52.884 14.31C52.604 13.9833 52.24 13.82 51.792 13.82C51.456 13.82 51.19 13.9273 50.994 14.142C50.77 14.3473 50.658 14.6273 50.658 14.982V17.418Z" fill="#FAFAFA"/>
<defs>
<linearGradient id="paint0_linear_71_1840" x1="75.5" y1="35.3659" x2="20.6178" y2="-13.6107" gradientUnits="userSpaceOnUse">
<stop stop-color="#A58F76"/>
<stop offset="1" stop-color="#F2EEEB"/>
</linearGradient>
</defs>
</svg>
