<svg width="24" height="22" viewBox="0 0 24 22" fill="none" xmlns="http://www.w3.org/2000/svg">
<path d="M23.2 6.99357C23.2 13.756 16.44 18.9756 13.4237 20.968C12.5505 21.5448 11.4499 21.544 10.5772 20.9664C7.56133 18.9701 0.799988 13.742 0.799988 6.99357C0.799988 5.65169 1.21089 4.34383 1.97448 3.25524C2.73808 2.16665 3.81565 1.35253 5.05457 0.92819C6.29349 0.503851 7.63094 0.49081 8.87748 0.890914C10.124 1.29102 11.2164 2.08398 12 3.15749C12.7836 2.08398 13.876 1.29102 15.1225 0.890914C16.369 0.49081 17.7065 0.503851 18.9454 0.92819C20.1843 1.35253 21.2619 2.16665 22.0255 3.25524C22.7891 4.34383 23.2 5.65169 23.2 6.99357Z" fill="#F1122D"/>
</svg>
