<svg width="32" height="32" viewBox="0 0 32 32" fill="none" xmlns="http://www.w3.org/2000/svg">
<circle cx="16" cy="16" r="16" fill="#2D67F6"/>
<path fill-rule="evenodd" clip-rule="evenodd" d="M16.5 7C11.4296 7 7.5 10.7141 7.5 15.7303C7.5 18.3543 8.57565 20.6215 10.3268 22.1879C10.4734 22.3201 10.5622 22.503 10.5694 22.7004L10.6183 24.3012C10.6346 24.8119 11.1616 25.1433 11.6288 24.9387L13.4143 24.1509C13.5664 24.0839 13.7348 24.0712 13.8942 24.1147C14.7145 24.3411 15.5891 24.4606 16.5 24.4606C21.5704 24.4606 25.5 20.7465 25.5 15.7303C25.5 10.7141 21.5704 7 16.5 7Z" fill="white"/>
<path fill-rule="evenodd" clip-rule="evenodd" d="M11.0958 18.3725L13.7399 14.1844C14.16 13.5189 15.0619 13.3525 15.6921 13.8245L17.7947 15.3996C17.9885 15.5443 18.2529 15.5425 18.4449 15.3978L21.2846 13.2458C21.6631 12.9583 22.1593 13.4122 21.904 13.8137L19.2617 18C18.8415 18.6655 17.9396 18.8319 17.3094 18.3599L15.2068 16.7848C15.013 16.6401 14.7486 16.6419 14.5566 16.7866L11.7151 18.9404C11.3366 19.2279 10.8404 18.774 11.0958 18.3725Z" fill="#2D67F6"/>
</svg>
