<svg width="46" height="46" viewBox="0 0 46 46" fill="none" xmlns="http://www.w3.org/2000/svg">
<g filter="url(#filter0_bi_241_2061)">
<circle cx="23" cy="23" r="22" fill="black" fill-opacity="0.25"/>
<circle cx="23" cy="23" r="22.2422" stroke="url(#paint0_linear_241_2061)" stroke-opacity="0.2" stroke-width="0.484375"/>
</g>
<path d="M24.9375 15.25C24.9375 14.715 25.3712 14.2812 25.9062 14.2812H28.8125C29.3475 14.2812 29.7812 14.715 29.7812 15.25V30.75C29.7812 31.285 29.3475 31.7188 28.8125 31.7188H25.9062C25.3712 31.7188 24.9375 31.285 24.9375 30.75V15.25Z" fill="white"/>
<path d="M16.2188 15.25C16.2188 14.715 16.6525 14.2812 17.1875 14.2812H20.0938C20.6288 14.2812 21.0625 14.715 21.0625 15.25V30.75C21.0625 31.285 20.6288 31.7188 20.0938 31.7188H17.1875C16.6525 31.7188 16.2188 31.285 16.2188 30.75V15.25Z" fill="white"/>
<defs>
<filter id="filter0_bi_241_2061" x="-9.17188" y="-9.17188" width="64.3438" height="64.3438" filterUnits="userSpaceOnUse" color-interpolation-filters="sRGB">
<feFlood flood-opacity="0" result="BackgroundImageFix"/>
<feGaussianBlur in="BackgroundImageFix" stdDeviation="4.84375"/>
<feComposite in2="SourceAlpha" operator="in" result="effect1_backgroundBlur_241_2061"/>
<feBlend mode="normal" in="SourceGraphic" in2="effect1_backgroundBlur_241_2061" result="shape"/>
<feColorMatrix in="SourceAlpha" type="matrix" values="0 0 0 0 0 0 0 0 0 0 0 0 0 0 0 0 0 0 127 0" result="hardAlpha"/>
<feMorphology radius="0.707407" operator="dilate" in="SourceAlpha" result="effect2_innerShadow_241_2061"/>
<feOffset dx="-0.353704" dy="0.353704"/>
<feGaussianBlur stdDeviation="0.176852"/>
<feComposite in2="hardAlpha" operator="arithmetic" k2="-1" k3="1"/>
<feColorMatrix type="matrix" values="0 0 0 0 1 0 0 0 0 1 0 0 0 0 1 0 0 0 0.35 0"/>
<feBlend mode="normal" in2="shape" result="effect2_innerShadow_241_2061"/>
</filter>
<linearGradient id="paint0_linear_241_2061" x1="39.8548" y1="4.01613" x2="23" y2="45" gradientUnits="userSpaceOnUse">
<stop stop-color="white"/>
<stop offset="1" stop-color="white" stop-opacity="0"/>
</linearGradient>
</defs>
</svg>
