<svg width="8" height="15" viewBox="0 0 8 15" fill="none" xmlns="http://www.w3.org/2000/svg">
<path d="M1.6002 10.0674L6.1902 14.6574C6.37756 14.8437 6.63101 14.9482 6.8952 14.9482C7.15938 14.9482 7.41284 14.8437 7.6002 14.6574C7.69393 14.5645 7.76832 14.4539 7.81909 14.332C7.86986 14.2102 7.896 14.0795 7.896 13.9474C7.896 13.8154 7.86986 13.6847 7.81909 13.5629C7.76832 13.441 7.69393 13.3304 7.6002 13.2374L3.0002 8.65745C2.90647 8.56449 2.83207 8.45389 2.78131 8.33203C2.73054 8.21017 2.7044 8.07946 2.7044 7.94745C2.7044 7.81544 2.73054 7.68473 2.78131 7.56287C2.83207 7.44101 2.90647 7.33041 3.0002 7.23745L7.6002 2.65745C7.7885 2.47047 7.89482 2.21635 7.89575 1.95098C7.89669 1.68562 7.79217 1.43075 7.6052 1.24245C7.41822 1.05414 7.1641 0.947828 6.89873 0.946891C6.63337 0.945953 6.3785 1.05047 6.1902 1.23745L1.6002 5.82745C1.03839 6.38995 0.722836 7.15245 0.722836 7.94745C0.722836 8.74245 1.03839 9.50495 1.6002 10.0674Z" fill="#FAFAFA"/>
</svg>
