<svg width="25" height="25" viewBox="0 0 25 25" fill="none" xmlns="http://www.w3.org/2000/svg">
<path d="M22.3334 15.5V9.5C22.3334 4.5 20.3334 2.5 15.3334 2.5H9.33337C4.33337 2.5 2.33337 4.5 2.33337 9.5V15.5C2.33337 20.5 4.33337 22.5 9.33337 22.5H15.3334C20.3334 22.5 22.3334 20.5 22.3334 15.5Z" stroke="#F2EEEB" stroke-width="1.5" stroke-linecap="round" stroke-linejoin="round"/>
<path d="M2.85339 7.61035H21.8134" stroke="#F2EEEB" stroke-width="1.5" stroke-linecap="round" stroke-linejoin="round"/>
<path d="M8.85339 2.61035V7.47035" stroke="#F2EEEB" stroke-width="1.5" stroke-linecap="round" stroke-linejoin="round"/>
<path d="M15.8134 2.61035V7.02035" stroke="#F2EEEB" stroke-width="1.5" stroke-linecap="round" stroke-linejoin="round"/>
<path d="M10.0834 14.9501V13.7501C10.0834 12.2101 11.1734 11.5801 12.5034 12.3501L13.5434 12.9501L14.5834 13.5501C15.9134 14.3201 15.9134 15.5801 14.5834 16.3501L13.5434 16.9501L12.5034 17.5501C11.1734 18.3201 10.0834 17.6901 10.0834 16.1501V14.9501V14.9501Z" stroke="#F2EEEB" stroke-width="1.5" stroke-linecap="round" stroke-linejoin="round"/>
</svg>
