<svg width="25" height="25" viewBox="0 0 25 25" fill="none" xmlns="http://www.w3.org/2000/svg">
<path d="M10.6033 6.36V3H15.0633V6.36H10.6033Z" fill="#C1B2A1" stroke="#C1B2A1"/>
<path d="M22.0712 6.36H17.5632V3.01688C18.7954 3.09735 19.7942 3.46183 20.5477 4.04731C21.2605 4.60119 21.7824 5.37492 22.0712 6.36Z" fill="#C1B2A1" stroke="#C1B2A1"/>
<path d="M15.5231 17.1134L15.5231 17.1135L15.528 17.1106C16.3717 16.611 16.9633 15.8841 16.9633 14.9704C16.9633 14.0673 16.3942 13.3053 15.5221 12.8067C15.5219 12.8065 15.5216 12.8064 15.5213 12.8062L13.4455 11.6087C13.4451 11.6084 13.4447 11.6082 13.4443 11.608C12.5779 11.102 11.6388 10.9784 10.8532 11.4374C10.067 11.8863 9.70325 12.7708 9.70325 13.7604V16.1604C9.70325 17.1511 10.0678 18.0365 10.856 18.4849L10.859 18.4866C11.1859 18.6697 11.5403 18.7604 11.9233 18.7604C12.4312 18.7604 12.9461 18.5959 13.4403 18.3151L13.4403 18.3151L13.4431 18.3134L15.5231 17.1134ZM3.33325 16.6904V8.86035H22.3333V16.6904C22.3333 18.4109 21.8223 19.7242 20.9397 20.6068C20.0571 21.4894 18.7438 22.0004 17.0233 22.0004H8.64325C6.92269 22.0004 5.60943 21.4894 4.72681 20.6068C3.84418 19.7242 3.33325 18.4109 3.33325 16.6904Z" fill="#C1B2A1" stroke="#C1B2A1"/>
<path d="M8.10313 6.36H3.59512C3.88395 5.37492 4.40589 4.60119 5.11868 4.04731C5.87215 3.46183 6.87099 3.09735 8.10313 3.01688V6.36Z" fill="#C1B2A1" stroke="#C1B2A1"/>
</svg>
