<svg width="33" height="32" viewBox="0 0 33 32" fill="none" xmlns="http://www.w3.org/2000/svg">
<circle cx="16.5" cy="16" r="16" fill="#65D072"/>
<path fill-rule="evenodd" clip-rule="evenodd" d="M20.6236 17.7866C20.3997 17.675 19.2987 17.1358 19.0934 17.0615C18.8882 16.9871 18.7389 16.9499 18.5896 17.173C18.4403 17.3962 18.0112 17.8981 17.8805 18.0469C17.7499 18.1956 17.6193 18.2143 17.3953 18.1027C17.1714 17.9911 16.4498 17.7558 15.5945 16.9965C14.9288 16.4056 14.4793 15.6757 14.3487 15.4526C14.2181 15.2294 14.3348 15.1088 14.4469 14.9977C14.5476 14.8979 14.6708 14.7374 14.7828 14.6073C14.8948 14.4771 14.9321 14.3842 15.0067 14.2355C15.0814 14.0867 15.0441 13.9566 14.9881 13.845C14.9321 13.7334 14.4842 12.6365 14.2976 12.1903C14.1159 11.7557 13.9312 11.8145 13.7938 11.8077C13.6633 11.8012 13.5139 11.7998 13.3646 11.7998C13.2153 11.7998 12.9727 11.8556 12.7674 12.0787C12.5621 12.3018 11.9836 12.841 11.9836 13.938C11.9836 15.0349 12.7861 16.0947 12.8981 16.2434C13.01 16.3922 14.4771 18.6433 16.7235 19.6086C17.2578 19.8383 17.675 19.9754 18.0002 20.0781C18.5367 20.2477 19.0248 20.2238 19.4107 20.1664C19.8409 20.1024 20.7356 19.6272 20.9222 19.1067C21.1088 18.5861 21.1088 18.1399 21.0528 18.0469C20.9969 17.9539 20.8476 17.8981 20.6236 17.7866ZM16.5374 23.3389H16.5344C15.1977 23.3384 13.8867 22.981 12.743 22.3056L12.471 22.1449L9.65165 22.8809L10.4042 20.1452L10.227 19.8648C9.48139 18.6844 9.08758 17.3202 9.08814 15.9194C9.08977 11.8319 12.4315 8.5064 16.5404 8.5064C18.5301 8.50717 20.4004 9.27932 21.8068 10.6806C23.2132 12.0819 23.9873 13.9445 23.9866 15.9254C23.9849 20.0132 20.6432 23.3389 16.5374 23.3389ZM22.8774 9.61581C21.1853 7.92986 18.9351 7.00094 16.5376 7C11.5977 7 7.57714 11.001 7.57516 15.9189C7.57452 17.4909 7.98719 19.0254 8.77146 20.378L7.5 25L12.2511 23.7597C13.5601 24.4703 15.034 24.8447 16.534 24.8454H16.5376H16.5377C21.4771 24.8454 25.498 20.8439 25.5 15.926C25.5009 13.5427 24.5696 11.3017 22.8774 9.61581Z" fill="white"/>
</svg>
